# xmcd
#
# Track frame offsets: 
#        150
#        5416
#        31188
#        48936
#        61014
#        76743
#        91755
#        112930
#        137731
#        156595
#        172670
#        186983
#        200999
#        220900
#
# Disc length: 3321 seconds
#
# Revision: 0
# Processed by: cddbd v1.5.2PL0 Copyright (c) Steve Scherf et al.
# Submitted via: ExactAudioCopyFreeDBPlugin 1.0
#
DISCID=af0cf70e
DTITLE=KSW4BLUES - żyć albo rzyć
DYEAR=2017
DGENRE=Blues
TTITLE0=1. PROLOG BLUES (ZŁY)
TTITLE1=2. POŻEGNALNY BLUES (ŚLEPY KOŃ)
TTITLE2=3. FATALNY BLUES (STASZEK DZIADEK)
TTITLE3=4. OBŁUDNY BLUES (DIABŁA OGONEK)
TTITLE4=5. ZAKOCHANY BLUES (O JEJ OCZACH)
TTITLE5=6. ZAZDROSNY BLUES (WOLĘ NIE WIEDZIEĆ)
TTITLE6=7. OMOTANY BLUES (DALILA)
TTITLE7=8. MĘTNY BLUES (TAJEMNICA)
TTITLE8=9. SMUTNY BLUES (ZABIĆ MIŁOŚĆ)
TTITLE9=10. OPĘTANY BLUES (SZTYLET)
TTITLE10=11. CZARNY BLUES (ZŁY)
TTITLE11=12. GRZESZNY BLUES (JEDNO, DRUGIE, SIEDEM)
TTITLE12=13. CZUJNY BLUES (NIE TRAĆ NADZIEI)
TTITLE13=14. MIŁOSNY BLUES (POCIĄG)
EXTD=
EXTT0=
EXTT1=
EXTT2=
EXTT3=
EXTT4=
EXTT5=
EXTT6=
EXTT7=
EXTT8=
EXTT9=
EXTT10=
EXTT11=
EXTT12=
EXTT13=
PLAYORDER=
